<?xml version="1.0" encoding="utf-8"?>
<!-- Generator: Adobe Illustrator 23.0.3, SVG Export Plug-In . SVG Version: 6.00 Build 0)  -->
<svg version="1.1" id="Layer_1" xmlns="http://www.w3.org/2000/svg" xmlns:xlink="http://www.w3.org/1999/xlink" x="0px" y="0px"
	 viewBox="0 0 512 512" style="enable-background:new 0 0 512 512;" xml:space="preserve">
<style type="text/css">
	.st0{fill:#FFE161;}
</style>
<path class="st0" d="M256,303.1c26.5,0,48-21.5,48-48s-21.5-48-48-48s-48,22.4-48,48S229.5,303.1,256,303.1z M213.6,188L142.7,74.7
	c-10.2-16.3-32.8-20.4-47.4-8c-44.9,38.1-76.2,91.8-85.2,152.8c-2.8,19.1,12.6,36.3,31.9,36.3h133.8
	C175.8,227.2,191,202.3,213.6,188z M416.8,66.7c-14.7-12.4-37.2-8.3-47.4,8l-71,113.3c22.6,14.3,37.8,39.2,37.8,67.8H470
	c19.3,0,34.7-17.1,31.9-36.3C492.9,158.6,461.7,104.8,416.8,66.7z M298.4,323.5c-12.3,7.7-26.8,12.4-42.4,12.4s-30.1-4.7-42.4-12.4
	l-70.9,113.4c-10.1,16.2-4.2,38.2,13.3,46c30.6,13.5,64.4,21.1,100,21.1s69.4-7.6,100-21.2c17.5-7.8,23.5-29.7,13.3-46L298.4,323.5z
	"/>
</svg>
